<svg xmlns="http://www.w3.org/2000/svg" xmlns:xlink="http://www.w3.org/1999/xlink" width="210" zoomAndPan="magnify" viewBox="0 0 157.5 39.749999" height="53" preserveAspectRatio="xMidYMid meet" version="1.0"><defs><g/><clipPath id="f3644eb907"><path d="M 6.359375 27 L 39 27 L 39 36 L 6.359375 36 Z M 6.359375 27 " clip-rule="nonzero"/></clipPath><clipPath id="a336c7e271"><path d="M 6.359375 3.375 L 39.152344 3.375 L 39.152344 36.167969 L 6.359375 36.167969 Z M 6.359375 3.375 " clip-rule="nonzero"/></clipPath></defs><g clip-path="url(#f3644eb907)"><path fill="#fccd1d" d="M 38.601562 31.546875 C 38.601562 31.816406 38.5 32.082031 38.296875 32.34375 C 38.09375 32.605469 37.792969 32.859375 37.394531 33.109375 C 36.996094 33.355469 36.507812 33.589844 35.929688 33.8125 C 35.351562 34.035156 34.695312 34.242188 33.960938 34.429688 C 33.222656 34.621094 32.421875 34.789062 31.558594 34.9375 C 30.691406 35.085938 29.78125 35.210938 28.820312 35.3125 C 27.855469 35.414062 26.867188 35.492188 25.847656 35.546875 C 24.824219 35.597656 23.792969 35.625 22.753906 35.625 C 21.714844 35.625 20.683594 35.597656 19.664062 35.546875 C 18.640625 35.492188 17.652344 35.414062 16.691406 35.3125 C 15.730469 35.210938 14.816406 35.085938 13.949219 34.9375 C 13.085938 34.789062 12.285156 34.621094 11.550781 34.429688 C 10.8125 34.242188 10.15625 34.035156 9.578125 33.8125 C 9 33.589844 8.511719 33.355469 8.113281 33.109375 C 7.714844 32.859375 7.414062 32.605469 7.210938 32.34375 C 7.007812 32.082031 6.910156 31.816406 6.910156 31.546875 C 6.910156 31.28125 7.007812 31.015625 7.210938 30.753906 C 7.414062 30.488281 7.714844 30.234375 8.113281 29.988281 C 8.511719 29.742188 9 29.503906 9.578125 29.28125 C 10.15625 29.058594 10.8125 28.855469 11.550781 28.664062 C 12.285156 28.476562 13.085938 28.308594 13.949219 28.160156 C 14.816406 28.007812 15.730469 27.882812 16.691406 27.78125 C 17.652344 27.679688 18.640625 27.601562 19.664062 27.550781 C 20.683594 27.496094 21.714844 27.472656 22.753906 27.472656 C 23.792969 27.472656 24.824219 27.496094 25.847656 27.550781 C 26.867188 27.601562 27.855469 27.679688 28.820312 27.78125 C 29.78125 27.882812 30.691406 28.007812 31.558594 28.160156 C 32.421875 28.308594 33.222656 28.476562 33.960938 28.664062 C 34.695312 28.855469 35.351562 29.058594 35.929688 29.28125 C 36.507812 29.503906 36.996094 29.742188 37.394531 29.988281 C 37.792969 30.234375 38.09375 30.488281 38.296875 30.753906 C 38.5 31.015625 38.601562 31.28125 38.601562 31.546875 Z M 38.601562 31.546875 " fill-opacity="1" fill-rule="nonzero"/></g><path fill="#f9a215" d="M 33.683594 31.546875 C 33.683594 31.671875 33.613281 31.796875 33.472656 31.917969 C 33.332031 32.042969 33.125 32.160156 32.851562 32.277344 C 32.578125 32.390625 32.238281 32.5 31.839844 32.605469 C 31.441406 32.707031 30.988281 32.804688 30.480469 32.894531 C 29.972656 32.980469 29.421875 33.058594 28.824219 33.128906 C 28.230469 33.199219 27.597656 33.257812 26.9375 33.304688 C 26.273438 33.351562 25.589844 33.390625 24.886719 33.414062 C 24.183594 33.4375 23.472656 33.449219 22.753906 33.449219 C 22.035156 33.449219 21.324219 33.4375 20.621094 33.414062 C 19.917969 33.390625 19.234375 33.351562 18.574219 33.304688 C 17.910156 33.257812 17.28125 33.199219 16.683594 33.128906 C 16.085938 33.058594 15.535156 32.980469 15.027344 32.894531 C 14.519531 32.804688 14.066406 32.707031 13.667969 32.605469 C 13.269531 32.5 12.933594 32.390625 12.65625 32.277344 C 12.382812 32.160156 12.175781 32.042969 12.035156 31.917969 C 11.894531 31.796875 11.824219 31.671875 11.824219 31.546875 C 11.824219 31.421875 11.894531 31.300781 12.035156 31.175781 C 12.175781 31.054688 12.382812 30.933594 12.65625 30.820312 C 12.933594 30.703125 13.269531 30.59375 13.667969 30.492188 C 14.066406 30.386719 14.519531 30.289062 15.027344 30.203125 C 15.535156 30.113281 16.085938 30.035156 16.683594 29.964844 C 17.28125 29.898438 17.910156 29.839844 18.574219 29.789062 C 19.234375 29.742188 19.917969 29.707031 20.621094 29.683594 C 21.324219 29.65625 22.035156 29.644531 22.753906 29.644531 C 23.472656 29.644531 24.183594 29.65625 24.886719 29.683594 C 25.589844 29.707031 26.273438 29.742188 26.9375 29.789062 C 27.597656 29.839844 28.230469 29.898438 28.824219 29.964844 C 29.421875 30.035156 29.972656 30.113281 30.480469 30.203125 C 30.988281 30.289062 31.441406 30.386719 31.839844 30.492188 C 32.238281 30.59375 32.578125 30.703125 32.851562 30.820312 C 33.125 30.933594 33.332031 31.054688 33.472656 31.175781 C 33.613281 31.300781 33.683594 31.421875 33.683594 31.546875 Z M 33.683594 31.546875 " fill-opacity="1" fill-rule="nonzero"/><path fill="#dd051d" d="M 34.777344 16.058594 C 34.777344 15.34375 34.710938 14.636719 34.585938 13.933594 C 34.457031 13.234375 34.269531 12.546875 34.019531 11.878906 C 33.765625 11.210938 33.457031 10.570312 33.09375 9.957031 C 32.726562 9.34375 32.308594 8.765625 31.839844 8.226562 C 31.371094 7.6875 30.855469 7.195312 30.296875 6.746094 C 29.738281 6.300781 29.144531 5.90625 28.515625 5.5625 C 27.886719 5.21875 27.230469 4.9375 26.550781 4.710938 C 25.871094 4.488281 25.175781 4.324219 24.464844 4.222656 C 23.753906 4.121094 23.042969 4.082031 22.324219 4.109375 C 21.609375 4.132812 20.898438 4.222656 20.199219 4.375 C 19.496094 4.523438 18.816406 4.738281 18.152344 5.011719 C 17.492188 5.285156 16.859375 5.613281 16.253906 6 C 15.652344 6.382812 15.085938 6.820312 14.5625 7.304688 C 14.039062 7.792969 13.558594 8.320312 13.128906 8.890625 C 12.699219 9.464844 12.324219 10.066406 12.003906 10.707031 C 11.683594 11.34375 11.421875 12.003906 11.21875 12.691406 C 11.019531 13.375 10.878906 14.070312 10.800781 14.78125 C 10.726562 15.488281 10.710938 16.199219 10.765625 16.910156 C 10.816406 17.625 10.929688 18.324219 11.105469 19.015625 C 11.285156 19.707031 11.523438 20.378906 11.820312 21.027344 C 12.117188 21.675781 12.472656 22.292969 12.882812 22.878906 C 13.289062 23.464844 13.75 24.007812 14.253906 24.511719 C 14.761719 25.019531 15.3125 25.472656 15.898438 25.878906 C 16.488281 26.285156 17.109375 26.636719 17.761719 26.933594 L 22.035156 31.195312 C 22.242188 31.371094 22.480469 31.460938 22.753906 31.460938 C 23.027344 31.460938 23.269531 31.371094 23.472656 31.195312 L 27.746094 26.933594 C 28.792969 26.457031 29.753906 25.84375 30.625 25.09375 C 31.496094 24.34375 32.242188 23.488281 32.867188 22.523438 C 33.488281 21.558594 33.964844 20.527344 34.289062 19.425781 C 34.613281 18.328125 34.777344 17.203125 34.777344 16.058594 Z M 34.777344 16.058594 " fill-opacity="1" fill-rule="nonzero"/><path fill="#ffffff" d="M 32.589844 16.058594 C 32.589844 16.699219 32.527344 17.335938 32.402344 17.964844 C 32.273438 18.597656 32.089844 19.207031 31.839844 19.800781 C 31.59375 20.394531 31.292969 20.957031 30.933594 21.492188 C 30.574219 22.027344 30.164062 22.519531 29.710938 22.976562 C 29.253906 23.429688 28.753906 23.835938 28.21875 24.191406 C 27.683594 24.550781 27.113281 24.851562 26.519531 25.097656 C 25.921875 25.34375 25.304688 25.527344 24.671875 25.652344 C 24.039062 25.777344 23.398438 25.839844 22.753906 25.839844 C 22.109375 25.839844 21.46875 25.777344 20.835938 25.652344 C 20.203125 25.527344 19.585938 25.34375 18.992188 25.097656 C 18.394531 24.851562 17.828125 24.550781 17.289062 24.191406 C 16.753906 23.835938 16.257812 23.429688 15.800781 22.976562 C 15.34375 22.519531 14.933594 22.027344 14.578125 21.492188 C 14.21875 20.957031 13.914062 20.394531 13.667969 19.800781 C 13.421875 19.207031 13.234375 18.597656 13.109375 17.964844 C 12.980469 17.335938 12.917969 16.699219 12.917969 16.058594 C 12.917969 15.414062 12.980469 14.777344 13.109375 14.148438 C 13.234375 13.519531 13.421875 12.90625 13.667969 12.3125 C 13.914062 11.71875 14.21875 11.15625 14.578125 10.621094 C 14.933594 10.089844 15.34375 9.59375 15.800781 9.140625 C 16.257812 8.6875 16.753906 8.28125 17.289062 7.921875 C 17.828125 7.566406 18.394531 7.265625 18.992188 7.019531 C 19.585938 6.773438 20.203125 6.585938 20.835938 6.460938 C 21.46875 6.335938 22.109375 6.273438 22.753906 6.273438 C 23.398438 6.273438 24.039062 6.335938 24.671875 6.460938 C 25.304688 6.585938 25.921875 6.773438 26.519531 7.019531 C 27.113281 7.265625 27.683594 7.566406 28.21875 7.921875 C 28.753906 8.28125 29.253906 8.6875 29.710938 9.140625 C 30.164062 9.59375 30.574219 10.089844 30.933594 10.621094 C 31.292969 11.15625 31.59375 11.71875 31.839844 12.3125 C 32.089844 12.90625 32.273438 13.519531 32.402344 14.148438 C 32.527344 14.777344 32.589844 15.414062 32.589844 16.058594 Z M 32.589844 16.058594 " fill-opacity="1" fill-rule="nonzero"/><path fill="#e6e7e8" d="M 17.972656 20.8125 C 17.714844 20.558594 17.519531 20.261719 17.378906 19.925781 C 17.238281 19.59375 17.167969 19.242188 17.167969 18.882812 C 17.167969 18.519531 17.238281 18.171875 17.378906 17.835938 C 17.519531 17.5 17.714844 17.207031 17.972656 16.949219 L 23.652344 11.300781 C 23.910156 11.046875 24.207031 10.847656 24.542969 10.710938 C 24.878906 10.570312 25.230469 10.5 25.59375 10.5 C 25.957031 10.5 26.308594 10.570312 26.644531 10.710938 C 26.980469 10.847656 27.277344 11.046875 27.535156 11.300781 C 27.792969 11.558594 27.992188 11.855469 28.132812 12.1875 C 28.269531 12.523438 28.339844 12.871094 28.339844 13.234375 C 28.339844 13.597656 28.269531 13.945312 28.132812 14.28125 C 27.992188 14.613281 27.792969 14.910156 27.535156 15.167969 L 21.859375 20.8125 C 21.601562 21.070312 21.304688 21.265625 20.96875 21.40625 C 20.628906 21.542969 20.28125 21.613281 19.917969 21.613281 C 19.550781 21.613281 19.203125 21.542969 18.863281 21.40625 C 18.527344 21.265625 18.230469 21.070312 17.972656 20.8125 Z M 17.972656 20.8125 " fill-opacity="1" fill-rule="nonzero"/><path fill="#dd051d" d="M 20.8125 14.125 L 23.652344 11.300781 C 23.90625 11.046875 24.207031 10.847656 24.542969 10.710938 C 24.878906 10.570312 25.230469 10.5 25.59375 10.5 C 25.957031 10.5 26.308594 10.570312 26.644531 10.710938 C 26.980469 10.847656 27.277344 11.046875 27.535156 11.300781 C 27.792969 11.558594 27.992188 11.855469 28.132812 12.1875 C 28.269531 12.523438 28.339844 12.871094 28.339844 13.234375 C 28.339844 13.597656 28.269531 13.945312 28.132812 14.28125 C 27.992188 14.613281 27.792969 14.910156 27.535156 15.167969 L 24.695312 17.988281 Z M 20.8125 14.125 " fill-opacity="1" fill-rule="nonzero"/><path fill="#000000" d="M 23.300781 33.449219 C 23.300781 33.601562 23.246094 33.726562 23.140625 33.835938 C 23.035156 33.941406 22.90625 33.992188 22.753906 33.992188 C 22.605469 33.992188 22.476562 33.941406 22.367188 33.835938 C 22.261719 33.726562 22.207031 33.601562 22.207031 33.449219 C 22.207031 33.300781 22.261719 33.171875 22.367188 33.066406 C 22.476562 32.960938 22.605469 32.90625 22.753906 32.90625 C 22.90625 32.90625 23.035156 32.960938 23.140625 33.066406 C 23.246094 33.171875 23.300781 33.300781 23.300781 33.449219 Z M 23.300781 33.449219 " fill-opacity="1" fill-rule="nonzero"/><g clip-path="url(#a336c7e271)"><path fill="#000000" d="M 28.566406 27.132812 C 29.582031 26.601562 30.507812 25.945312 31.34375 25.164062 C 32.183594 24.382812 32.898438 23.507812 33.492188 22.53125 C 34.089844 21.554688 34.542969 20.515625 34.851562 19.417969 C 35.164062 18.320312 35.320312 17.199219 35.320312 16.058594 C 35.320312 9.164062 29.683594 3.558594 22.753906 3.558594 C 15.824219 3.558594 10.1875 9.164062 10.1875 16.058594 C 10.191406 17.199219 10.347656 18.320312 10.65625 19.417969 C 10.96875 20.515625 11.421875 21.554688 12.015625 22.53125 C 12.609375 23.507812 13.328125 24.382812 14.164062 25.164062 C 15 25.945312 15.925781 26.601562 16.945312 27.132812 C 9.921875 27.65625 6.363281 29.140625 6.363281 31.546875 C 6.363281 35.367188 15.277344 36.167969 22.753906 36.167969 C 30.234375 36.167969 39.148438 35.367188 39.148438 31.546875 C 39.148438 29.140625 35.589844 27.65625 28.566406 27.132812 Z M 11.28125 16.058594 C 11.28125 9.765625 16.425781 4.644531 22.753906 4.644531 C 29.082031 4.644531 34.230469 9.765625 34.230469 16.058594 C 34.226562 17.152344 34.070312 18.222656 33.761719 19.273438 C 33.449219 20.320312 32.996094 21.304688 32.402344 22.226562 C 31.808594 23.144531 31.09375 23.964844 30.265625 24.679688 C 29.433594 25.398438 28.519531 25.984375 27.519531 26.441406 C 27.460938 26.46875 27.40625 26.503906 27.359375 26.550781 L 23.113281 30.785156 C 23.015625 30.871094 22.902344 30.914062 22.773438 30.921875 C 22.640625 30.925781 22.527344 30.886719 22.421875 30.808594 L 20.90625 29.296875 C 20.898438 29.289062 20.890625 29.285156 20.886719 29.277344 L 18.148438 26.550781 C 18.101562 26.503906 18.050781 26.46875 17.988281 26.441406 C 16.988281 25.984375 16.074219 25.398438 15.246094 24.679688 C 14.414062 23.964844 13.703125 23.144531 13.105469 22.226562 C 12.511719 21.304688 12.058594 20.320312 11.75 19.273438 C 11.4375 18.222656 11.28125 17.152344 11.28125 16.058594 Z M 22.753906 35.082031 C 13.316406 35.082031 7.453125 33.726562 7.453125 31.546875 C 7.453125 29.765625 11.371094 28.53125 18.203125 28.140625 L 19.261719 29.199219 C 15.832031 29.390625 11.28125 29.945312 11.28125 31.546875 C 11.28125 33.355469 17.082031 33.832031 20.539062 33.953125 L 20.558594 33.953125 C 20.710938 33.957031 20.839844 33.90625 20.949219 33.800781 C 21.058594 33.699219 21.113281 33.570312 21.117188 33.421875 C 21.117188 33.269531 21.066406 33.140625 20.960938 33.035156 C 20.859375 32.925781 20.730469 32.871094 20.578125 32.867188 C 15.347656 32.683594 12.917969 31.933594 12.429688 31.546875 C 12.910156 31.167969 15.265625 30.441406 20.304688 30.238281 L 21.671875 31.601562 C 21.980469 31.867188 22.335938 32 22.742188 32 C 23.167969 32 23.539062 31.859375 23.859375 31.578125 L 25.199219 30.238281 C 30.238281 30.441406 32.59375 31.167969 33.074219 31.546875 C 32.585938 31.933594 30.160156 32.683594 24.929688 32.867188 C 24.777344 32.871094 24.648438 32.925781 24.542969 33.035156 C 24.4375 33.144531 24.386719 33.273438 24.390625 33.421875 C 24.394531 33.570312 24.449219 33.699219 24.558594 33.804688 C 24.667969 33.90625 24.796875 33.957031 24.945312 33.957031 L 24.964844 33.957031 C 28.425781 33.832031 34.230469 33.355469 34.230469 31.546875 C 34.230469 29.949219 29.679688 29.390625 26.246094 29.199219 L 27.308594 28.140625 C 34.136719 28.53125 38.054688 29.765625 38.054688 31.546875 C 38.054688 33.726562 32.191406 35.082031 22.753906 35.082031 Z M 22.753906 35.082031 " fill-opacity="1" fill-rule="nonzero"/></g><path fill="#000000" d="M 33.136719 16.058594 C 33.136719 10.363281 28.480469 5.730469 22.753906 5.730469 C 17.03125 5.730469 12.371094 10.363281 12.371094 16.058594 C 12.371094 21.75 17.03125 26.382812 22.753906 26.382812 C 28.480469 26.382812 33.136719 21.75 33.136719 16.058594 Z M 13.464844 16.058594 C 13.464844 10.960938 17.632812 6.816406 22.753906 6.816406 C 27.878906 6.816406 32.042969 10.960938 32.042969 16.058594 C 32.042969 21.152344 27.878906 25.296875 22.753906 25.296875 C 17.632812 25.296875 13.464844 21.152344 13.464844 16.058594 Z M 13.464844 16.058594 " fill-opacity="1" fill-rule="nonzero"/><path fill="#000000" d="M 28.886719 13.234375 C 28.886719 12.570312 28.703125 11.964844 28.332031 11.414062 C 27.960938 10.863281 27.46875 10.460938 26.855469 10.207031 C 26.238281 9.953125 25.605469 9.890625 24.949219 10.019531 C 24.296875 10.152344 23.734375 10.449219 23.265625 10.917969 L 17.585938 16.566406 C 16.308594 17.785156 16.308594 19.980469 17.585938 21.199219 C 17.894531 21.503906 18.253906 21.742188 18.65625 21.90625 C 19.058594 22.074219 19.480469 22.15625 19.914062 22.15625 C 20.351562 22.15625 20.773438 22.074219 21.175781 21.90625 C 21.578125 21.742188 21.933594 21.503906 22.246094 21.199219 L 27.921875 15.550781 C 28.566406 14.910156 28.890625 14.140625 28.886719 13.234375 Z M 21.472656 20.429688 C 21.265625 20.632812 21.027344 20.792969 20.757812 20.902344 C 20.488281 21.015625 20.207031 21.070312 19.914062 21.070312 C 19.625 21.070312 19.34375 21.015625 19.074219 20.902344 C 18.804688 20.792969 18.566406 20.632812 18.359375 20.429688 C 17.507812 19.613281 17.507812 18.148438 18.359375 17.332031 L 20.8125 14.894531 L 23.925781 17.988281 Z M 27.148438 14.78125 L 24.695312 17.222656 L 21.585938 14.125 L 24.039062 11.6875 C 24.242188 11.480469 24.480469 11.324219 24.75 11.210938 C 25.019531 11.101562 25.300781 11.046875 25.59375 11.046875 C 25.886719 11.046875 26.164062 11.101562 26.433594 11.210938 C 26.703125 11.324219 26.941406 11.480469 27.148438 11.6875 C 28.003906 12.5 28.003906 13.96875 27.148438 14.78125 Z M 27.148438 14.78125 " fill-opacity="1" fill-rule="nonzero"/><g fill="#ff0000" fill-opacity="1"><g transform="translate(45.678529, 14.62047)"><g><path d="M 1.8125 -4.9375 L 1.8125 -3.109375 L 4.828125 -3.109375 L 4.828125 -2.15625 L 1.8125 -2.15625 L 1.8125 0 L 0.578125 0 L 0.578125 -5.890625 L 4.921875 -5.890625 L 4.921875 -4.9375 Z M 1.8125 -4.9375 "/></g></g><g transform="translate(50.905034, 14.62047)"><g><path d="M 4.734375 0 L 4.21875 -1.5 L 1.96875 -1.5 L 1.453125 0 L 0.21875 0 L 2.359375 -5.890625 L 3.8125 -5.890625 L 5.953125 0 Z M 3.09375 -4.984375 L 3.0625 -4.890625 C 3.03125 -4.785156 2.992188 -4.671875 2.953125 -4.546875 C 2.921875 -4.421875 2.6875 -3.71875 2.25 -2.4375 L 3.9375 -2.4375 L 3.359375 -4.125 L 3.171875 -4.6875 Z M 3.09375 -4.984375 "/></g></g><g transform="translate(57.084092, 14.62047)"><g><path d="M 4.625 0 L 3.25 -2.234375 L 1.8125 -2.234375 L 1.8125 0 L 0.578125 0 L 0.578125 -5.890625 L 3.515625 -5.890625 C 4.210938 -5.890625 4.753906 -5.738281 5.140625 -5.4375 C 5.523438 -5.132812 5.71875 -4.703125 5.71875 -4.140625 C 5.71875 -3.722656 5.597656 -3.363281 5.359375 -3.0625 C 5.128906 -2.769531 4.816406 -2.570312 4.421875 -2.46875 L 6.015625 0 Z M 4.46875 -4.078125 C 4.46875 -4.648438 4.109375 -4.9375 3.390625 -4.9375 L 1.8125 -4.9375 L 1.8125 -3.1875 L 3.421875 -3.1875 C 3.765625 -3.1875 4.023438 -3.265625 4.203125 -3.421875 C 4.378906 -3.578125 4.46875 -3.796875 4.46875 -4.078125 Z M 4.46875 -4.078125 "/></g></g><g transform="translate(63.263149, 14.62047)"><g><path d="M 5.46875 0 L 5.46875 -3.578125 C 5.46875 -3.648438 5.46875 -3.726562 5.46875 -3.8125 C 5.46875 -3.894531 5.476562 -4.242188 5.5 -4.859375 C 5.300781 -4.109375 5.15625 -3.582031 5.0625 -3.28125 L 4 0 L 3.125 0 L 2.0625 -3.28125 L 1.625 -4.859375 C 1.65625 -4.210938 1.671875 -3.785156 1.671875 -3.578125 L 1.671875 0 L 0.578125 0 L 0.578125 -5.890625 L 2.21875 -5.890625 L 3.28125 -2.59375 L 3.375 -2.28125 L 3.578125 -1.484375 L 3.828125 -2.4375 L 4.921875 -5.890625 L 6.5625 -5.890625 L 6.5625 0 Z M 5.46875 0 "/></g></g><g transform="translate(70.390581, 14.62047)"><g><path d="M 4.734375 0 L 4.21875 -1.5 L 1.96875 -1.5 L 1.453125 0 L 0.21875 0 L 2.359375 -5.890625 L 3.8125 -5.890625 L 5.953125 0 Z M 3.09375 -4.984375 L 3.0625 -4.890625 C 3.03125 -4.785156 2.992188 -4.671875 2.953125 -4.546875 C 2.921875 -4.421875 2.6875 -3.71875 2.25 -2.4375 L 3.9375 -2.4375 L 3.359375 -4.125 L 3.171875 -4.6875 Z M 2.390625 -6.390625 L 2.390625 -6.53125 L 3.453125 -7.59375 L 4.53125 -7.59375 L 4.53125 -7.40625 L 3.109375 -6.390625 Z M 2.390625 -6.390625 "/></g></g><g transform="translate(76.569639, 14.62047)"><g><path d="M 3.328125 -0.890625 C 4.066406 -0.890625 4.582031 -1.257812 4.875 -2 L 5.953125 -1.59375 C 5.722656 -1.03125 5.382812 -0.609375 4.9375 -0.328125 C 4.488281 -0.0546875 3.953125 0.078125 3.328125 0.078125 C 2.378906 0.078125 1.644531 -0.1875 1.125 -0.71875 C 0.601562 -1.257812 0.34375 -2.007812 0.34375 -2.96875 C 0.34375 -3.9375 0.59375 -4.679688 1.09375 -5.203125 C 1.59375 -5.722656 2.316406 -5.984375 3.265625 -5.984375 C 3.960938 -5.984375 4.523438 -5.84375 4.953125 -5.5625 C 5.390625 -5.28125 5.695312 -4.875 5.875 -4.34375 L 4.78125 -4.046875 C 4.695312 -4.335938 4.519531 -4.570312 4.25 -4.75 C 3.976562 -4.925781 3.660156 -5.015625 3.296875 -5.015625 C 2.734375 -5.015625 2.304688 -4.835938 2.015625 -4.484375 C 1.734375 -4.140625 1.59375 -3.632812 1.59375 -2.96875 C 1.59375 -2.289062 1.738281 -1.773438 2.03125 -1.421875 C 2.332031 -1.066406 2.765625 -0.890625 3.328125 -0.890625 Z M 3.328125 -0.890625 "/></g></g><g transform="translate(82.748697, 14.62047)"><g><path d="M 0.578125 0 L 0.578125 -5.890625 L 1.8125 -5.890625 L 1.8125 0 Z M 0.578125 0 "/></g></g><g transform="translate(85.1259, 14.62047)"><g><path d="M 4.734375 0 L 4.21875 -1.5 L 1.96875 -1.5 L 1.453125 0 L 0.21875 0 L 2.359375 -5.890625 L 3.8125 -5.890625 L 5.953125 0 Z M 3.09375 -4.984375 L 3.0625 -4.890625 C 3.03125 -4.785156 2.992188 -4.671875 2.953125 -4.546875 C 2.921875 -4.421875 2.6875 -3.71875 2.25 -2.4375 L 3.9375 -2.4375 L 3.359375 -4.125 L 3.171875 -4.6875 Z M 3.09375 -4.984375 "/></g></g></g><g fill="#090909" fill-opacity="1"><g transform="translate(44.588574, 29.107943)"><g><path d="M 6.796875 -2.640625 C 6.796875 -1.773438 6.488281 -1.097656 5.875 -0.609375 C 5.257812 -0.117188 4.398438 0.125 3.296875 0.125 C 2.285156 0.125 1.390625 -0.0625 0.609375 -0.4375 L 0.609375 -2.3125 C 1.253906 -2.03125 1.796875 -1.828125 2.234375 -1.703125 C 2.679688 -1.585938 3.085938 -1.53125 3.453125 -1.53125 C 3.890625 -1.53125 4.226562 -1.613281 4.46875 -1.78125 C 4.707031 -1.945312 4.828125 -2.195312 4.828125 -2.53125 C 4.828125 -2.71875 4.773438 -2.882812 4.671875 -3.03125 C 4.566406 -3.175781 4.410156 -3.316406 4.203125 -3.453125 C 4.003906 -3.585938 3.597656 -3.800781 2.984375 -4.09375 C 2.398438 -4.363281 1.960938 -4.625 1.671875 -4.875 C 1.378906 -5.132812 1.144531 -5.429688 0.96875 -5.765625 C 0.800781 -6.097656 0.71875 -6.484375 0.71875 -6.921875 C 0.71875 -7.765625 1 -8.425781 1.5625 -8.90625 C 2.132812 -9.382812 2.925781 -9.625 3.9375 -9.625 C 4.425781 -9.625 4.894531 -9.566406 5.34375 -9.453125 C 5.789062 -9.335938 6.257812 -9.171875 6.75 -8.953125 L 6.109375 -7.390625 C 5.597656 -7.597656 5.175781 -7.742188 4.84375 -7.828125 C 4.507812 -7.910156 4.1875 -7.953125 3.875 -7.953125 C 3.488281 -7.953125 3.191406 -7.863281 2.984375 -7.6875 C 2.785156 -7.507812 2.6875 -7.28125 2.6875 -7 C 2.6875 -6.8125 2.726562 -6.648438 2.8125 -6.515625 C 2.894531 -6.390625 3.023438 -6.265625 3.203125 -6.140625 C 3.378906 -6.015625 3.804688 -5.796875 4.484375 -5.484375 C 5.367188 -5.054688 5.972656 -4.628906 6.296875 -4.203125 C 6.628906 -3.773438 6.796875 -3.253906 6.796875 -2.640625 Z M 6.796875 -2.640625 "/></g></g></g><g fill="#090909" fill-opacity="1"><g transform="translate(51.913703, 29.107943)"><g><path d="M 8.921875 -9.5 L 8.921875 -3.34375 C 8.921875 -2.644531 8.765625 -2.03125 8.453125 -1.5 C 8.140625 -0.976562 7.6875 -0.578125 7.09375 -0.296875 C 6.5 -0.015625 5.796875 0.125 4.984375 0.125 C 3.765625 0.125 2.816406 -0.1875 2.140625 -0.8125 C 1.460938 -1.4375 1.125 -2.289062 1.125 -3.375 L 1.125 -9.5 L 3.140625 -9.5 L 3.140625 -3.6875 C 3.140625 -2.945312 3.285156 -2.40625 3.578125 -2.0625 C 3.867188 -1.726562 4.351562 -1.5625 5.03125 -1.5625 C 5.695312 -1.5625 6.175781 -1.734375 6.46875 -2.078125 C 6.769531 -2.421875 6.921875 -2.957031 6.921875 -3.6875 L 6.921875 -9.5 Z M 8.921875 -9.5 "/></g></g></g><g fill="#090909" fill-opacity="1"><g transform="translate(61.966274, 29.107943)"><g><path d="M 6.796875 -2.640625 C 6.796875 -1.773438 6.488281 -1.097656 5.875 -0.609375 C 5.257812 -0.117188 4.398438 0.125 3.296875 0.125 C 2.285156 0.125 1.390625 -0.0625 0.609375 -0.4375 L 0.609375 -2.3125 C 1.253906 -2.03125 1.796875 -1.828125 2.234375 -1.703125 C 2.679688 -1.585938 3.085938 -1.53125 3.453125 -1.53125 C 3.890625 -1.53125 4.226562 -1.613281 4.46875 -1.78125 C 4.707031 -1.945312 4.828125 -2.195312 4.828125 -2.53125 C 4.828125 -2.71875 4.773438 -2.882812 4.671875 -3.03125 C 4.566406 -3.175781 4.410156 -3.316406 4.203125 -3.453125 C 4.003906 -3.585938 3.597656 -3.800781 2.984375 -4.09375 C 2.398438 -4.363281 1.960938 -4.625 1.671875 -4.875 C 1.378906 -5.132812 1.144531 -5.429688 0.96875 -5.765625 C 0.800781 -6.097656 0.71875 -6.484375 0.71875 -6.921875 C 0.71875 -7.765625 1 -8.425781 1.5625 -8.90625 C 2.132812 -9.382812 2.925781 -9.625 3.9375 -9.625 C 4.425781 -9.625 4.894531 -9.566406 5.34375 -9.453125 C 5.789062 -9.335938 6.257812 -9.171875 6.75 -8.953125 L 6.109375 -7.390625 C 5.597656 -7.597656 5.175781 -7.742188 4.84375 -7.828125 C 4.507812 -7.910156 4.1875 -7.953125 3.875 -7.953125 C 3.488281 -7.953125 3.191406 -7.863281 2.984375 -7.6875 C 2.785156 -7.507812 2.6875 -7.28125 2.6875 -7 C 2.6875 -6.8125 2.726562 -6.648438 2.8125 -6.515625 C 2.894531 -6.390625 3.023438 -6.265625 3.203125 -6.140625 C 3.378906 -6.015625 3.804688 -5.796875 4.484375 -5.484375 C 5.367188 -5.054688 5.972656 -4.628906 6.296875 -4.203125 C 6.628906 -3.773438 6.796875 -3.253906 6.796875 -2.640625 Z M 6.796875 -2.640625 "/></g></g></g><g fill="#090909" fill-opacity="1"><g transform="translate(69.291403, 29.107943)"><g><path d="M 4.859375 0 L 2.84375 0 L 2.84375 -7.8125 L 0.265625 -7.8125 L 0.265625 -9.5 L 7.4375 -9.5 L 7.4375 -7.8125 L 4.859375 -7.8125 Z M 4.859375 0 "/></g></g></g><g fill="#090909" fill-opacity="1"><g transform="translate(76.993179, 29.107943)"><g><path d="M 6.65625 0 L 1.1875 0 L 1.1875 -9.5 L 6.65625 -9.5 L 6.65625 -7.84375 L 3.203125 -7.84375 L 3.203125 -5.765625 L 6.421875 -5.765625 L 6.421875 -4.109375 L 3.203125 -4.109375 L 3.203125 -1.65625 L 6.65625 -1.65625 Z M 6.65625 0 "/></g></g></g><g fill="#090909" fill-opacity="1"><g transform="translate(84.441698, 29.107943)"><g><path d="M 9.609375 0 L 7.0625 0 L 2.921875 -7.1875 L 2.875 -7.1875 C 2.957031 -5.914062 3 -5.007812 3 -4.46875 L 3 0 L 1.1875 0 L 1.1875 -9.5 L 3.734375 -9.5 L 7.859375 -2.375 L 7.90625 -2.375 C 7.832031 -3.613281 7.796875 -4.488281 7.796875 -5 L 7.796875 -9.5 L 9.609375 -9.5 Z M 9.609375 0 "/></g></g></g><g fill="#090909" fill-opacity="1"><g transform="translate(95.254063, 29.107943)"><g><path d="M 4.859375 0 L 2.84375 0 L 2.84375 -7.8125 L 0.265625 -7.8125 L 0.265625 -9.5 L 7.4375 -9.5 L 7.4375 -7.8125 L 4.859375 -7.8125 Z M 4.859375 0 "/></g></g></g><g fill="#090909" fill-opacity="1"><g transform="translate(102.955839, 29.107943)"><g><path d="M 7 0 L 6.3125 -2.265625 L 2.859375 -2.265625 L 2.171875 0 L 0 0 L 3.34375 -9.53125 L 5.8125 -9.53125 L 9.171875 0 Z M 5.84375 -3.953125 C 5.195312 -5.992188 4.832031 -7.148438 4.75 -7.421875 C 4.675781 -7.691406 4.625 -7.90625 4.59375 -8.0625 C 4.445312 -7.5 4.035156 -6.128906 3.359375 -3.953125 Z M 3.515625 -10.25 L 3.515625 -10.421875 C 4.253906 -11.285156 4.765625 -11.9375 5.046875 -12.375 L 7.265625 -12.375 L 7.265625 -12.234375 C 7.035156 -12.015625 6.648438 -11.679688 6.109375 -11.234375 C 5.566406 -10.785156 5.140625 -10.457031 4.828125 -10.25 Z M 3.515625 -10.25 "/></g></g></g><g fill="#090909" fill-opacity="1"><g transform="translate(112.131738, 29.107943)"><g><path d="M 6.609375 -9.5 L 8.640625 -9.5 L 5.421875 0 L 3.21875 0 L 0 -9.5 L 2.03125 -9.5 L 3.8125 -3.84375 C 3.914062 -3.507812 4.019531 -3.117188 4.125 -2.671875 C 4.226562 -2.234375 4.296875 -1.925781 4.328125 -1.75 C 4.367188 -2.144531 4.53125 -2.84375 4.8125 -3.84375 Z M 6.609375 -9.5 "/></g></g></g><g fill="#090909" fill-opacity="1"><g transform="translate(120.775137, 29.107943)"><g><path d="M 6.65625 0 L 1.1875 0 L 1.1875 -9.5 L 6.65625 -9.5 L 6.65625 -7.84375 L 3.203125 -7.84375 L 3.203125 -5.765625 L 6.421875 -5.765625 L 6.421875 -4.109375 L 3.203125 -4.109375 L 3.203125 -1.65625 L 6.65625 -1.65625 Z M 6.65625 0 "/></g></g></g><g fill="#090909" fill-opacity="1"><g transform="translate(128.223657, 29.107943)"><g><path d="M 1.1875 0 L 1.1875 -9.5 L 3.203125 -9.5 L 3.203125 -1.65625 L 7.0625 -1.65625 L 7.0625 0 Z M 1.1875 0 "/></g></g></g></svg>